<?xml version="1.0" encoding="UTF-8" standalone="no"?>
<svg
   xmlns:osb="http://www.openswatchbook.org/uri/2009/osb"
   xmlns:dc="http://purl.org/dc/elements/1.1/"
   xmlns:cc="http://creativecommons.org/ns#"
   xmlns:rdf="http://www.w3.org/1999/02/22-rdf-syntax-ns#"
   xmlns:svg="http://www.w3.org/2000/svg"
   xmlns="http://www.w3.org/2000/svg"
   xmlns:sodipodi="http://sodipodi.sourceforge.net/DTD/sodipodi-0.dtd"
   xmlns:inkscape="http://www.inkscape.org/namespaces/inkscape"
   width="100mm"
   height="100mm"
   viewBox="0 0 100 100"
   version="1.1"
   id="svg1397"
   inkscape:version="1.0 (4035a4fb49, 2020-05-01)"
   sodipodi:docname="Chair-Light.svg"
   inkscape:export-filename="C:\Users\iffn1\Documents\UnityProjects\CastleBuilder2\Assets\iffns RPG\Elements\Buildings\HumanBuildings\UI\ButtonIcons\Light\Chair-Light.png"
   inkscape:export-xdpi="96"
   inkscape:export-ydpi="96">
  <defs
     id="defs1391">
    <marker
       inkscape:stockid="Arrow1Lstart"
       orient="auto"
       refY="0.0"
       refX="0.0"
       id="Arrow1Lstart"
       style="overflow:visible"
       inkscape:isstock="true">
      <path
         id="path2844"
         d="M 0.0,0.0 L 5.0,-5.0 L -12.5,0.0 L 5.0,5.0 L 0.0,0.0 z "
         style="fill-rule:evenodd;stroke:#000000;stroke-width:1.0pt"
         transform="scale(0.8) translate(12.5,0)" />
    </marker>
    <linearGradient
       osb:paint="solid"
       id="linearGradient3996">
      <stop
         id="stop3994"
         offset="0"
         style="stop-color:#333333;stop-opacity:1;" />
    </linearGradient>
  </defs>
  <sodipodi:namedview
     id="base"
     pagecolor="#ffffff"
     bordercolor="#666666"
     borderopacity="1.0"
     inkscape:pageopacity="0.0"
     inkscape:pageshadow="2"
     inkscape:zoom="1.4"
     inkscape:cx="184.8112"
     inkscape:cy="243.79576"
     inkscape:document-units="mm"
     inkscape:current-layer="layer1"
     inkscape:document-rotation="0"
     showgrid="false"
     inkscape:window-width="1920"
     inkscape:window-height="1017"
     inkscape:window-x="-8"
     inkscape:window-y="-8"
     inkscape:window-maximized="1" />
  <metadata
     id="metadata1394">
    <rdf:RDF>
      <cc:Work
         rdf:about="">
        <dc:format>image/svg+xml</dc:format>
        <dc:type
           rdf:resource="http://purl.org/dc/dcmitype/StillImage" />
        <dc:title />
      </cc:Work>
    </rdf:RDF>
  </metadata>
  <g
     inkscape:label="Layer 1"
     inkscape:groupmode="layer"
     id="layer1">
    <g
       style="fill:#f9f9f9;fill-opacity:1;stroke:#000000;stroke-opacity:1"
       transform="translate(-28.422914,-806.83829)"
       id="g5734">
      <g
         transform="matrix(0.20250051,0,0,0.22324636,49.023085,862.56002)"
         id="g1912-8-0-9"
         style="fill:#f9f9f9;fill-opacity:1;stroke:#000000;stroke-width:6.7022;stroke-miterlimit:4;stroke-dasharray:none;stroke-opacity:1">
        <path
           sodipodi:nodetypes="cccccccccc"
           d="m 41.545966,-22.122999 v 74.989656 0 c -0.002,0.0522 1e-4,-0.0522 0,0 2.9e-4,4.013 4.40779,7.42268 9.75002,7.4228 5.34244,9e-5 9.74974,-3.40965 9.75003,-7.4228 0,0 0.002,0.0522 0,0 v 0 -74.794728 z"
           style="fill:#f9f9f9;fill-opacity:1;stroke:#000000;stroke-width:6.7022;stroke-linejoin:round;stroke-miterlimit:4;stroke-dasharray:none;stroke-opacity:1;paint-order:fill markers stroke"
           id="path1070-8-0-9-6-5" />
      </g>
      <g
         transform="matrix(0.20250051,0,0,0.22324636,82.297826,861.12489)"
         id="g1912-8-0-1"
         style="fill:#f9f9f9;fill-opacity:1;stroke:#000000;stroke-width:6.7022;stroke-miterlimit:4;stroke-dasharray:none;stroke-opacity:1">
        <path
           sodipodi:nodetypes="cccccccccc"
           d="m 41.545966,-22.122999 v 74.989656 0 c -0.002,0.0522 1e-4,-0.0522 0,0 2.9e-4,4.013 4.40779,7.42268 9.75002,7.4228 5.34244,9e-5 9.74974,-3.40965 9.75003,-7.4228 0,0 0.002,0.0522 0,0 v 0 -74.794728 z"
           style="fill:#f9f9f9;fill-opacity:1;stroke:#000000;stroke-width:6.7022;stroke-linejoin:round;stroke-miterlimit:4;stroke-dasharray:none;stroke-opacity:1;paint-order:fill markers stroke"
           id="path1070-8-0-9-6-8" />
      </g>
      <g
         style="fill:#f9f9f9;fill-opacity:1;stroke:#000000;stroke-width:6.7022;stroke-miterlimit:4;stroke-dasharray:none;stroke-opacity:1"
         id="g1912-8-0"
         transform="matrix(0.20250051,0,0,0.22324636,65.742926,869.57799)">
        <path
           id="path1070-8-0-9-6"
           style="fill:#f9f9f9;fill-opacity:1;stroke:#000000;stroke-width:6.7022;stroke-linejoin:round;stroke-miterlimit:4;stroke-dasharray:none;stroke-opacity:1;paint-order:fill markers stroke"
           d="m 41.545966,-22.122999 v 74.989656 0 c -0.002,0.0522 1e-4,-0.0522 0,0 2.9e-4,4.013 4.40779,7.42268 9.75002,7.4228 5.34244,9e-5 9.74974,-3.40965 9.75003,-7.4228 0,0 0.002,0.0522 0,0 v 0 -74.794728 z"
           sodipodi:nodetypes="cccccccccc" />
      </g>
      <rect
         transform="matrix(0.89700053,-0.44202948,0,1,0,0)"
         y="899.68762"
         x="84.780243"
         height="3.1888711"
         width="20.748884"
         id="rect1815-7"
         style="fill:#f9f9f9;fill-opacity:1;stroke:#000000;stroke-width:1.50462;stroke-linejoin:round;stroke-miterlimit:4;stroke-dasharray:none;stroke-opacity:1;paint-order:fill markers stroke"
         ry="0" />
      <rect
         style="fill:#f9f9f9;fill-opacity:1;stroke:#000000;stroke-width:1.48357;stroke-linejoin:round;stroke-miterlimit:4;stroke-dasharray:none;stroke-opacity:1;paint-order:fill markers stroke"
         id="rect1815-4-6"
         width="20.172377"
         height="3.4949391"
         x="62.252239"
         y="830.11725"
         transform="matrix(0.92263592,0.38567208,0,1,0,0)" />
      <rect
         ry="0"
         style="fill:#f9f9f9;fill-opacity:1;stroke:#000000;stroke-width:1.63112;stroke-linejoin:round;stroke-miterlimit:4;stroke-dasharray:none;stroke-opacity:1;paint-order:fill markers stroke"
         id="rect1815-9-3"
         width="20.75202"
         height="20.295227"
         x="975.46881"
         y="-1057.2186"
         transform="matrix(-0.8968651,0.44230418,-0.91705115,-0.3987696,0,0)" />
      <rect
         ry="0"
         style="fill:#f9f9f9;fill-opacity:1;stroke:#000000;stroke-width:1.50462;stroke-linejoin:round;stroke-miterlimit:4;stroke-dasharray:none;stroke-opacity:1;paint-order:fill markers stroke"
         id="rect1815-7-6"
         width="3.1380026"
         height="21.440462"
         x="102.39111"
         y="878.24713"
         transform="matrix(0.89700053,-0.44202948,0,1,0,0)" />
      <rect
         transform="matrix(0.92263592,0.38567208,0,1,0,0)"
         y="794.59503"
         x="79.37381"
         height="20.295113"
         width="20.172388"
         id="rect1815-4-6-7"
         style="fill:#f9f9f9;fill-opacity:1;stroke:#000000;stroke-width:1.48357;stroke-linejoin:round;stroke-miterlimit:4;stroke-dasharray:none;stroke-opacity:1;paint-order:fill markers stroke" />
      <rect
         transform="matrix(-0.8968651,0.44230418,-0.91705115,-0.3987696,0,0)"
         y="-1032.0229"
         x="949.70593"
         height="19.714224"
         width="2.9048061"
         id="rect1815-9-3-1"
         style="fill:#f9f9f9;fill-opacity:1;stroke:#000000;stroke-width:1.63112;stroke-linejoin:round;stroke-miterlimit:4;stroke-dasharray:none;stroke-opacity:1;paint-order:fill markers stroke"
         ry="0" />
    </g>
  </g>
</svg>
