<?xml version="1.0" encoding="UTF-8" standalone="no"?>
<svg
   inkscape:export-ydpi="96"
   inkscape:export-xdpi="96"
   inkscape:export-filename="IlluminationEnabled-Dark.png"
   sodipodi:docname="IlluminationEnabled-Dark.svg"
   inkscape:version="1.2.2 (b0a8486541, 2022-12-01)"
   id="svg1397"
   version="1.1"
   viewBox="0 0 100 100"
   height="100mm"
   width="100mm"
   xmlns:inkscape="http://www.inkscape.org/namespaces/inkscape"
   xmlns:sodipodi="http://sodipodi.sourceforge.net/DTD/sodipodi-0.dtd"
   xmlns:xlink="http://www.w3.org/1999/xlink"
   xmlns="http://www.w3.org/2000/svg"
   xmlns:svg="http://www.w3.org/2000/svg"
   xmlns:rdf="http://www.w3.org/1999/02/22-rdf-syntax-ns#"
   xmlns:cc="http://creativecommons.org/ns#"
   xmlns:dc="http://purl.org/dc/elements/1.1/">
  <defs
     id="defs1391">
    <marker
       inkscape:isstock="true"
       style="overflow:visible"
       id="Arrow1Lstart"
       refX="0.0"
       refY="0.0"
       orient="auto"
       inkscape:stockid="Arrow1Lstart">
      <path
         transform="scale(0.8) translate(12.5,0)"
         style="fill-rule:evenodd;stroke:#000000;stroke-width:1.0pt"
         d="M 0.0,0.0 L 5.0,-5.0 L -12.5,0.0 L 5.0,5.0 L 0.0,0.0 z "
         id="path2844" />
    </marker>
    <linearGradient
       id="linearGradient3996"
       inkscape:swatch="solid">
      <stop
         style="stop-color:#333333;stop-opacity:1;"
         offset="0"
         id="stop3994" />
    </linearGradient>
    <linearGradient
       inkscape:collect="always"
       xlink:href="#linearGradient5158"
       id="linearGradient5160"
       x1="395.84518"
       y1="759.2439"
       x2="395.84518"
       y2="734.28699"
       gradientUnits="userSpaceOnUse"
       gradientTransform="matrix(0.4147089,-0.11112092,0.11105185,0.41445115,-196.13363,-233.16298)" />
    <linearGradient
       inkscape:collect="always"
       id="linearGradient5158">
      <stop
         style="stop-color:#ffb300;stop-opacity:1;"
         offset="0"
         id="stop5154" />
      <stop
         style="stop-color:#ff3e00;stop-opacity:1;"
         offset="1"
         id="stop5156" />
    </linearGradient>
    <inkscape:path-effect
       effect="spiro"
       id="path-effect5146"
       is_visible="true"
       lpeversion="1" />
  </defs>
  <sodipodi:namedview
     inkscape:window-maximized="1"
     inkscape:window-y="-8"
     inkscape:window-x="-8"
     inkscape:window-height="1017"
     inkscape:window-width="1920"
     showgrid="false"
     inkscape:document-rotation="0"
     inkscape:current-layer="layer1"
     inkscape:document-units="mm"
     inkscape:cy="244.28571"
     inkscape:cx="185"
     inkscape:zoom="1.4"
     inkscape:pageshadow="2"
     inkscape:pageopacity="0.0"
     borderopacity="1.0"
     bordercolor="#666666"
     pagecolor="#ffffff"
     id="base"
     inkscape:showpageshadow="2"
     inkscape:pagecheckerboard="0"
     inkscape:deskcolor="#d1d1d1" />
  <metadata
     id="metadata1394">
    <rdf:RDF>
      <cc:Work
         rdf:about="">
        <dc:format>image/svg+xml</dc:format>
        <dc:type
           rdf:resource="http://purl.org/dc/dcmitype/StillImage" />
        <dc:title />
      </cc:Work>
    </rdf:RDF>
  </metadata>
  <g
     id="layer1"
     inkscape:groupmode="layer"
     inkscape:label="Layer 1">
    <g
       id="g8264"
       transform="matrix(0.42933824,0,0,0.4290714,-118.29645,-286.94941)"
       style="display:inline;stroke-width:1.37381">
      <path
         sodipodi:nodetypes="cccccccccc"
         d="m 362.22894,765.63272 v 60.56711 0 c -0.008,0.15578 3.3e-4,-0.15578 0,0 8.9e-4,11.98154 13.14429,22.16172 29.07511,22.16207 15.93146,2.8e-4 29.07429,-10.1801 29.07514,-22.16207 0,0 0.007,0.15578 0,0 v 0 -60.56711 z"
         style="fill:#ffda8a;fill-opacity:1;stroke:#0a0a0a;stroke-width:2.03984;stroke-linejoin:round;stroke-miterlimit:4;stroke-dasharray:none;stroke-opacity:1;paint-order:fill markers stroke"
         id="path1070-8-7-7-2" />
      <ellipse
         ry="21.695736"
         rx="29.124588"
         cy="764.60553"
         cx="391.30649"
         id="path1070-1-6-4"
         style="fill:#ffe468;fill-opacity:1;stroke:#0a0a0a;stroke-width:1.91342;stroke-linejoin:round;stroke-miterlimit:4;stroke-dasharray:none;stroke-opacity:1;paint-order:fill markers stroke" />
    </g>
    <ellipse
       ry="6.9763417"
       rx="9.4138126"
       cy="41.120964"
       cx="49.706367"
       id="path1070-1-6-0-22"
       style="display:inline;fill:#ffda8a;fill-opacity:1;stroke:#0a0a0a;stroke-width:0.305136;stroke-linejoin:round;stroke-miterlimit:4;stroke-dasharray:none;stroke-opacity:1;paint-order:fill markers stroke" />
    <g
       id="g4202"
       transform="matrix(0.53666361,0,0,0.53633007,-212.91571,-373.08846)"
       style="display:inline;stroke-width:1.37381">
      <path
         sodipodi:nodetypes="cccccccccc"
         d="m 487.72754,767.48613 v 6.20533 0 c -4.5e-4,0.009 2e-5,-0.009 0,0 5e-5,0.71596 0.78544,1.32428 1.7374,1.32431 0.95199,10e-6 1.73735,-0.60832 1.7374,-1.32431 0,0 4.5e-4,0.009 0,0 v 0 -6.20533 z"
         style="display:inline;fill:#2b2b2b;fill-opacity:1;stroke:none;stroke-width:0.121892;stroke-linejoin:round;stroke-miterlimit:4;stroke-dasharray:none;stroke-opacity:1;paint-order:fill markers stroke"
         id="path1070-8-7-7-2-8" />
      <ellipse
         ry="1.2964417"
         rx="1.7403572"
         cy="767.38324"
         cx="489.46509"
         id="path1070-1-6-4-8"
         style="display:inline;fill:#2b2b2b;fill-opacity:1;stroke:none;stroke-width:0.114337;stroke-linejoin:round;stroke-miterlimit:4;stroke-dasharray:none;stroke-opacity:1;paint-order:fill markers stroke" />
    </g>
    <path
       style="display:inline;fill:url(#linearGradient5160);fill-opacity:1;stroke:none;stroke-width:0.189351;stroke-linejoin:bevel;stroke-dasharray:none"
       d="m 45.05807,26.889723 c 1.513444,0.395205 2.796796,1.580458 3.31085,3.057769 0.262672,0.754878 0.332154,1.575392 0.205763,2.364608 -0.126391,0.789217 -0.447891,1.54578 -0.923762,2.187951 -0.255161,0.344331 -0.5552,0.658465 -0.760968,1.034405 -0.307721,0.56221 -0.381984,1.242327 -0.230265,1.865026 0.151718,0.622699 0.522975,1.185032 1.018144,1.591947 0.635783,0.522466 1.469205,0.786823 2.291896,0.7676 0.822692,-0.01922 1.630488,-0.314614 2.297088,-0.797145 0.6666,-0.482531 1.19367,-1.146998 1.550909,-1.888329 0.357238,-0.741331 0.547624,-1.557868 0.598536,-2.379208 0.126607,-2.042495 -0.638909,-4.124713 -2.058369,-5.598805 -1.41946,-1.474092 -3.471297,-2.317661 -5.517115,-2.268245"
       id="path5144"
       inkscape:original-d="m 45.05807,26.889723 c -3.119546,-2.601636 2.207387,2.038595 3.31085,3.057769 1.103468,1.019173 -0.478519,3.035131 -0.717999,4.552559 -0.239485,1.517432 -0.507173,0.689689 -0.760968,1.034405 -0.253795,0.344729 0.52539,2.304736 0.787879,3.456973 0.262476,1.152232 4.492428,-2.86464 6.738429,-4.297082 2.245993,-1.432446 -5.050168,-5.244612 -7.575484,-7.86705"
       inkscape:path-effect="#path-effect5146" />
  </g>
</svg>
