<?xml version="1.0" encoding="UTF-8" standalone="no"?>
<svg
   xmlns:osb="http://www.openswatchbook.org/uri/2009/osb"
   xmlns:dc="http://purl.org/dc/elements/1.1/"
   xmlns:cc="http://creativecommons.org/ns#"
   xmlns:rdf="http://www.w3.org/1999/02/22-rdf-syntax-ns#"
   xmlns:svg="http://www.w3.org/2000/svg"
   xmlns="http://www.w3.org/2000/svg"
   xmlns:sodipodi="http://sodipodi.sourceforge.net/DTD/sodipodi-0.dtd"
   xmlns:inkscape="http://www.inkscape.org/namespaces/inkscape"
   inkscape:export-ydpi="96"
   inkscape:export-xdpi="96"
   inkscape:export-filename="C:\Users\iffn1\Documents\UnityProjects\CastleBuilder2\Assets\Modules\HumanBuildings\Builder\UI\Icons\Dark\StairsCircular-Dark.png"
   sodipodi:docname="StairsCircular-Dark.svg"
   inkscape:version="1.0.2 (e86c870879, 2021-01-15, custom)"
   id="svg1397"
   version="1.1"
   viewBox="0 0 100 100"
   height="100mm"
   width="100mm">
  <defs
     id="defs1391">
    <marker
       inkscape:isstock="true"
       style="overflow:visible"
       id="Arrow1Lstart"
       refX="0.0"
       refY="0.0"
       orient="auto"
       inkscape:stockid="Arrow1Lstart">
      <path
         transform="scale(0.8) translate(12.5,0)"
         style="fill-rule:evenodd;stroke:#000000;stroke-width:1.0pt"
         d="M 0.0,0.0 L 5.0,-5.0 L -12.5,0.0 L 5.0,5.0 L 0.0,0.0 z "
         id="path2844" />
    </marker>
    <linearGradient
       id="linearGradient3996"
       osb:paint="solid">
      <stop
         style="stop-color:#333333;stop-opacity:1;"
         offset="0"
         id="stop3994" />
    </linearGradient>
  </defs>
  <sodipodi:namedview
     inkscape:window-maximized="1"
     inkscape:window-y="-8"
     inkscape:window-x="-8"
     inkscape:window-height="1017"
     inkscape:window-width="1920"
     showgrid="false"
     inkscape:document-rotation="0"
     inkscape:current-layer="layer1"
     inkscape:document-units="mm"
     inkscape:cy="244.78832"
     inkscape:cx="124.90534"
     inkscape:zoom="1.4"
     inkscape:pageshadow="2"
     inkscape:pageopacity="0.0"
     borderopacity="1.0"
     bordercolor="#666666"
     pagecolor="#ffffff"
     id="base"
     showguides="true" />
  <metadata
     id="metadata1394">
    <rdf:RDF>
      <cc:Work
         rdf:about="">
        <dc:format>image/svg+xml</dc:format>
        <dc:type
           rdf:resource="http://purl.org/dc/dcmitype/StillImage" />
        <dc:title />
      </cc:Work>
    </rdf:RDF>
  </metadata>
  <g
     id="layer1"
     inkscape:groupmode="layer"
     inkscape:label="Layer 1">
    <path
       id="rect1815-04-4-7-5-2-7-3"
       style="fill:#333333;fill-opacity:1;stroke:#dddddd;stroke-width:1.12842;stroke-linejoin:round;stroke-miterlimit:4;stroke-dasharray:none;stroke-opacity:1;paint-order:fill markers stroke"
       d="m 20.474273,71.500726 16.144709,-2.60196 2.134482,1.679055 -6.716965,7.76808 c 0,0 -4.751503,-1.176787 -6.796304,-2.41302 -1.882684,-1.138222 -4.765922,-4.432155 -4.765922,-4.432155 z"
       sodipodi:nodetypes="ccccsc" />
    <path
       id="rect1815-04"
       style="fill:#333333;fill-opacity:1;stroke:#dddddd;stroke-width:1.12842;stroke-linejoin:round;stroke-miterlimit:4;stroke-dasharray:none;stroke-opacity:1;paint-order:fill markers stroke"
       d="m 68.884258,71.874924 c 4.348111,-3.865395 7.482903,-7.971483 9.014108,-13.584214 0.508158,-1.862687 0.467722,-6.580191 0.467722,-6.580191 l -10.194601,8.500879 0.502115,6.174583 c 0,0 -6.513046,1.840239 -9.175815,2.369105 -3.37996,0.67131 -8.847789,0.91279 -8.847789,0.91279 l 0.05535,6.284091 -18.279407,-2.85547 -0.389442,5.249404 c 0,0 -4.584502,-1.130383 -6.582225,-2.323174 -1.925188,-1.149482 -4.980001,-4.522001 -4.980001,-4.522001 L 20.31771,83.02472 c 0,0 8.051211,1.965129 12.149478,1.896095 6.190298,-0.104274 12.40059,-1.436143 18.24452,-3.480439 6.46149,-2.260328 13.056449,-5.017327 18.17255,-9.565452 z"
       sodipodi:nodetypes="sscccsccccsccsss" />
    <path
       id="rect1815-04-4"
       style="fill:#333333;fill-opacity:1;stroke:#dddddd;stroke-width:1.12842;stroke-linejoin:round;stroke-miterlimit:4;stroke-dasharray:none;stroke-opacity:1;paint-order:fill markers stroke"
       d="m 78.141203,45.720997 -22.122796,-3.027068 -0.128988,5.515813 22.476669,3.500777 z"
       sodipodi:nodetypes="ccccc" />
    <path
       id="rect1815-04-4-0"
       style="fill:#333333;fill-opacity:1;stroke:#dddddd;stroke-width:1.12842;stroke-linejoin:round;stroke-miterlimit:4;stroke-dasharray:none;stroke-opacity:1;paint-order:fill markers stroke"
       d="m 77.26793,35.795237 -21.521439,4.523296 0.271916,2.375396 22.122796,3.027068 c 0,0 0.04983,-3.801415 -0.143824,-5.632459 C 77.83463,38.549681 77.26793,35.795237 77.26793,35.795237 Z"
       sodipodi:nodetypes="ccccsc" />
    <path
       id="rect1815-04-4-0-3"
       style="fill:#333333;fill-opacity:1;stroke:#dddddd;stroke-width:1.12842;stroke-linejoin:round;stroke-miterlimit:4;stroke-dasharray:none;stroke-opacity:1;paint-order:fill markers stroke"
       d="M 77.26793,35.795237 55.746491,40.318533 55.483868,34.341757 77.025094,29.891265 Z"
       sodipodi:nodetypes="ccccc" />
    <path
       id="rect1815-04-4-0-3-1"
       style="fill:#333333;fill-opacity:1;stroke:#dddddd;stroke-width:1.12842;stroke-linejoin:round;stroke-miterlimit:4;stroke-dasharray:none;stroke-opacity:1;paint-order:fill markers stroke"
       d="m 65.77534,21.964039 -12.835179,10.403226 2.543707,1.974492 21.541226,-4.450492 c 0,0 -3.772172,-3.735521 -5.956185,-5.217676 -1.640206,-1.113106 -5.293569,-2.70955 -5.293569,-2.70955 z"
       sodipodi:nodetypes="ccccsc" />
    <path
       id="rect1815-04-4-7"
       style="fill:#333333;fill-opacity:1;stroke:#dddddd;stroke-width:1.12842;stroke-linejoin:round;stroke-miterlimit:4;stroke-dasharray:none;stroke-opacity:1;paint-order:fill markers stroke"
       d="m 68.171487,60.211398 -14.601607,-9.66217 2.319539,-2.339486 22.476669,3.500777 c 0,0 -2.414183,3.450427 -3.997723,4.804162 -1.828245,1.562928 -6.196878,3.696717 -6.196878,3.696717 z"
       sodipodi:nodetypes="ccccsc" />
    <path
       id="rect1815-04-4-7-5"
       style="fill:#333333;fill-opacity:1;stroke:#dddddd;stroke-width:1.12842;stroke-linejoin:round;stroke-miterlimit:4;stroke-dasharray:none;stroke-opacity:1;paint-order:fill markers stroke"
       d="m 68.171487,60.211398 -14.601607,-9.66217 -0.01907,5.812235 15.122791,10.024518 z"
       sodipodi:nodetypes="ccccc" />
    <path
       id="rect1815-04-4-7-5-2"
       style="fill:#333333;fill-opacity:1;stroke:#dddddd;stroke-width:1.12842;stroke-linejoin:round;stroke-miterlimit:4;stroke-dasharray:none;stroke-opacity:1;paint-order:fill markers stroke"
       d="m 50.649998,69.667876 -1.08916,-12.236457 3.989972,-1.069956 15.122791,10.024518 c 0,0 -5.178719,2.38544 -7.949962,2.929946 -3.296892,0.647788 -10.073641,0.351949 -10.073641,0.351949 z"
       sodipodi:nodetypes="ccccsc" />
    <path
       id="rect1815-04-4-7-5-2-7"
       style="fill:#333333;fill-opacity:1;stroke:#dddddd;stroke-width:1.12842;stroke-linejoin:round;stroke-miterlimit:4;stroke-dasharray:none;stroke-opacity:1;paint-order:fill markers stroke"
       d="m 32.425941,73.096497 12.874792,-10.726468 4.591328,0.734114 0.813287,12.847824 c 0,0 -7.067322,0.225355 -10.179802,-0.266437 -3.019033,-0.477027 -8.099605,-2.589033 -8.099605,-2.589033 z"
       sodipodi:nodetypes="ccccsc" />
    <path
       id="rect1815-04-4-0-3-1-9"
       style="fill:#333333;fill-opacity:1;stroke:#dddddd;stroke-width:1.12842;stroke-linejoin:round;stroke-miterlimit:4;stroke-dasharray:none;stroke-opacity:1;paint-order:fill markers stroke"
       d="m 53.043929,38.979686 -0.103768,-6.612421 2.543707,1.974492 0.405551,13.867985 z"
       sodipodi:nodetypes="ccccc" />
  </g>
</svg>
